<?xml version="1.0" encoding="utf-8"?>
<svg width="150pt" height="40pt" version="1.1" viewBox="0 0 150 40" xmlns="http://www.w3.org/2000/svg" preserveAspectRatio="xMaxYMid" xmlns:bx="https://boxy-svg.com"><path d="M 39.034 33.385 C 36.91 34.861 34.784 36.336 32.665 37.811 C 30.148 33.999 27.627 30.182 25.11 26.37 C 25.005 26.442 25.078 26.378 25 26.477 C 22.425 30.256 19.854 34.036 17.282 37.816 C 15.217 36.324 13.142 34.826 11.076 33.336 L 11.237 33.174 C 14.006 29.577 16.777 25.977 19.549 22.378 L 19.549 22.327 C 15.122 21.111 10.695 19.905 6.269 18.704 C 7.064 16.236 7.854 13.769 8.647 11.305 C 13.001 12.872 17.351 14.435 21.707 16.004 C 21.492 11.397 21.274 6.79 21.06 2.183 L 28.886 2.183 C 28.689 6.79 28.491 11.397 28.293 16.004 C 32.665 14.455 37.04 12.909 41.411 11.364 C 42.182 13.808 42.96 16.254 43.731 18.704 C 39.304 19.923 34.878 21.149 30.456 22.373 C 33.314 26.04 36.175 29.714 39.034 33.383 L 39.034 33.385 Z" style="fill: rgb(78, 70, 229);"/><text style="fill: rgb(51, 51, 51); font-family: &quot;Geist Mono&quot;; font-size: 30px; font-weight: 500; white-space: pre;" x="54.437" y="30.711">Skmtc</text><defs><style bx:fonts="Geist Mono">@import url(https://fonts.googleapis.com/css2?family=Geist+Mono%3Aital%2Cwght%400%2C100..900&amp;display=swap);</style><bx:export><bx:file format="svg" units="pt" path="Skmtc.svg" width="150" height="40"/></bx:export></defs><text style="white-space: pre; fill: rgb(51, 51, 51); font-family: Arial, sans-serif; font-size: 28px;" x="82.997" y="27.451"> </text></svg>